# xmcd
#
# Track frame offsets: 
#        150
#        19322
#        33806
#        49814
#        69319
#        90301
#        104560
#        119837
#        136204
#        149934
#
# Disc length: 2345 seconds
#
# Revision: 0
# Processed by: cddbd v1.5.2PL0 Copyright (c) Steve Scherf et al.
# Submitted via: ExactAudioCopy v0.95a5
#
DISCID=9209270a
DTITLE=Neil Young - Fork in the Road
DYEAR=2009
DGENRE=Country
TTITLE0=When Worlds Collide
TTITLE1=Fuel Line
TTITLE2=Just Singing A Song
TTITLE3=Johnny Magic
TTITLE4=Cough Up The Bucks
TTITLE5=Get Behind The Wheel
TTITLE6=Off The Road
TTITLE7=Hit The Road
TTITLE8=Light A Candle
TTITLE9=Fork In The Road
EXTD=
EXTT0=
EXTT1=
EXTT2=
EXTT3=
EXTT4=
EXTT5=
EXTT6=
EXTT7=
EXTT8=
EXTT9=
PLAYORDER=
